<svg width="64" height="64" viewBox="0 0 64 64" fill="none" xmlns="http://www.w3.org/2000/svg">
    <circle cx="32" cy="32" r="32" fill="url(#paint0_linear_327_4301)"/>
    <g filter="url(#filter1_d_327_4301)">
        <path fill-rule="evenodd" clip-rule="evenodd" d="M45.8579 16.5257C44.4724 15.1402 42.2336 15.1402 40.8481 16.5257L32.0001 25.3737L23.1521 16.5257C21.7666 15.1402 19.5277 15.1402 18.1422 16.5257L16.5255 18.1424C15.14 19.5279 15.14 21.7668 16.5255 23.1523L25.3735 32.0003L16.5255 40.8483C15.14 42.2338 15.14 44.4726 16.5255 45.8581L18.1422 47.4748C19.5277 48.8603 21.7666 48.8603 23.1521 47.4748L32.0001 38.6268L40.8481 47.4748C42.2336 48.8603 44.4724 48.8603 45.8579 47.4748L47.4746 45.8581C48.8601 44.4726 48.8601 42.2338 47.4746 40.8483L38.6266 32.0003L47.4746 23.1523C48.8601 21.7668 48.8601 19.5279 47.4746 18.1424L45.8579 16.5257Z" fill="url(#paint1_linear_327_4301)" shape-rendering="crispEdges"/>
    </g>
    <defs>
        <filter id="filter1_d_327_4301" x="14.5255" y="14.5257" width="35" height="35" filterUnits="userSpaceOnUse" color-interpolation-filters="sRGB">
            <feFlood flood-opacity="0" result="BackgroundImageFix"/>
            <feColorMatrix in="SourceAlpha" type="matrix" values="0 0 0 0 0 0 0 0 0 0 0 0 0 0 0 0 0 0 127 0" result="hardAlpha"/>
            <feOffset/>
            <feGaussianBlur stdDeviation="0.5"/>
            <feComposite in2="hardAlpha" operator="out"/>
            <feColorMatrix type="matrix" values="0 0 0 0 0 0 0 0 0 0 0 0 0 0 0 0 0 0 0.14 0"/>
            <feBlend mode="normal" in2="BackgroundImageFix" result="effect1_dropShadow_327_4301"/>
            <feBlend mode="normal" in="SourceGraphic" in2="effect1_dropShadow_327_4301" result="shape"/>
        </filter>
        <linearGradient id="paint0_linear_327_4301" x1="32" y1="0" x2="32" y2="64" gradientUnits="userSpaceOnUse">
            <stop stop-color="#75667D"/>
            <stop offset="1" stop-color="#322448"/>
        </linearGradient>
        <linearGradient id="paint1_linear_327_4301" x1="32.0001" y1="15.5257" x2="32.0001" y2="48.4748" gradientUnits="userSpaceOnUse">
            <stop stop-color="white"/>
            <stop offset="0.541188" stop-color="white" stop-opacity="0.8"/>
            <stop offset="1" stop-color="white" stop-opacity="0.6"/>
        </linearGradient>
    </defs>
</svg>