<svg width="16" height="16" viewBox="0 0 16 16" fill="none" xmlns="http://www.w3.org/2000/svg">
<g clip-path="url(#clip0_580_1248)">
<path d="M13.142 6.57655C13.142 9.22431 11.0288 11.4176 8.71838 13.7747C8.32466 14.1763 7.67748 14.1763 7.28395 13.7747C4.97358 11.4178 2.86035 9.2245 2.86035 6.57655C2.86035 3.65635 5.16191 1.28888 8.00107 1.28888C10.8402 1.28888 13.1418 3.65615 13.1418 6.57655H13.142Z" fill="#64748B"/>
<path d="M10 6C10 7.10458 9.1047 8 8 8C6.8953 8 6 7.10447 6 6C6 4.89553 6.89553 4 8 4C9.10447 4 10 4.89553 10 6Z" fill="white"/>
</g>
<defs>
<clipPath id="clip0_580_1248">
<rect width="16" height="16" fill="white"/>
</clipPath>
</defs>
</svg>
