<svg width="78" height="32" viewBox="0 0 78 32" fill="none" xmlns="http://www.w3.org/2000/svg">
<g clip-path="url(#clip0_366_4151)">
<path d="M74.8554 24.0016C76.0398 24.0016 76.9999 23.0392 76.9999 21.852C76.9999 20.6649 76.0398 19.7025 74.8554 19.7025C73.6711 19.7025 72.7109 20.6649 72.7109 21.852C72.7109 23.0392 73.6711 24.0016 74.8554 24.0016Z" fill="#FF213C"/>
<path d="M12.8107 13.5773C13.0759 13.7983 13.7823 14.4406 14.1786 14.4406C14.7299 14.4406 14.7522 13.534 14.7522 13.1576C14.7522 12.6034 14.7299 11.6519 14.5541 11.1426C14.2457 10.2136 13.0743 10.5451 13.0743 9.35021C13.0759 7.93425 15.3275 8.00152 16.2559 8.00152C17.1844 8.00152 19.6341 7.891 19.6341 9.41748C19.6341 10.6781 18.4643 10.2136 18.0888 11.2323C17.8012 12.0284 17.8012 13.4011 17.8012 14.242V19.9731C17.8012 20.9694 17.9338 23.9999 16.4541 23.9999C16.013 23.9999 15.6375 23.734 15.3067 23.4473L8.48494 17.3174C8.17653 17.0307 7.60126 16.4989 7.13785 16.4989C6.45391 16.4989 6.43154 17.9373 6.43154 18.4018C6.43154 19.0216 6.45391 19.8401 6.58494 20.4152C6.91573 21.8311 8.08705 21.301 8.08705 22.3853C8.08705 23.8686 5.81312 24.0015 4.77603 24.0015C3.73894 24.0015 1.48738 23.8686 1.48738 22.4302C1.48738 21.2577 2.76737 21.7222 2.98789 20.3063C3.14289 19.3548 3.18604 17.9613 3.18604 16.965C3.18604 15.3728 3.18604 13.7567 2.94315 12.1629C2.58999 9.94927 1 10.811 1 9.48315C1 7.91183 3.98024 8.00152 4.97418 8.00152C6.34205 8.00152 6.58494 8.08962 7.57889 8.9754L12.8107 13.5789V13.5773Z" fill="#0F172A"/>
<path d="M32.0952 13.5773C32.3605 13.7984 33.0668 14.4407 33.4631 14.4407C34.016 14.4407 34.0368 13.5341 34.0368 13.1577C34.0368 12.6034 34.0144 11.652 33.837 11.1426C33.5286 10.2136 32.3573 10.5452 32.3573 9.35027C32.3605 7.93431 34.612 8.00159 35.5389 8.00159C36.4657 8.00159 38.917 7.89106 38.917 9.41754C38.917 10.6781 37.7473 10.2136 37.3718 11.2323C37.0857 12.0284 37.0857 13.4011 37.0857 14.2421V19.9732C37.0857 20.9695 37.2183 24 35.7386 24C35.2976 24 34.922 23.7341 34.5913 23.4474L27.7695 17.3174C27.4611 17.0307 26.8858 16.4989 26.4224 16.4989C25.7384 16.4989 25.7161 17.9373 25.7161 18.4018C25.7161 19.0217 25.7384 19.8402 25.8711 20.4152C26.2019 21.8312 27.3732 21.301 27.3732 22.3854C27.3732 23.8686 25.0993 24.0016 24.0622 24.0016C23.0251 24.0016 20.7719 23.8686 20.7719 22.4303C20.7719 21.2578 22.0535 21.7223 22.274 20.3063C22.429 19.3549 22.4722 17.9613 22.4722 16.965C22.4722 15.3729 22.4722 13.7567 22.2293 12.163C21.8761 9.95093 20.2861 10.8127 20.2861 9.48482C20.2845 7.91189 23.2648 8.00159 24.2571 8.00159C25.6266 8.00159 25.8695 8.08968 26.8618 8.97385L32.0936 13.5773H32.0952Z" fill="#0F172A"/>
<path d="M48.5977 18.4691C48.3995 18.8007 47.6261 20.1061 47.6261 20.4825C47.6261 21.0127 48.8182 20.9919 49.149 20.9919C53.0129 20.9919 51.7537 18.0703 53.4316 18.0703C54.5358 18.0703 55.0215 18.735 55.0215 19.7746C55.0215 22.1644 53.5642 23.9568 52.7924 23.9568C52.6821 23.9568 52.2618 23.9119 51.7984 23.8462C51.335 23.8014 50.8268 23.7582 50.5184 23.7582H41.2022C40.4512 23.7582 39.6346 23.9568 39.6346 22.9172C39.6346 22.496 39.8998 22.142 40.098 21.8104L45.6606 12.3392C45.7708 12.1614 46.0585 11.7417 46.0585 11.4983C46.0585 10.9232 45.1524 10.8576 44.6011 10.8576C41.819 10.8576 42.503 13.8448 40.9369 13.8448C40.0325 13.8448 39.4141 12.8485 39.4141 12.0076C39.4141 10.3258 40.9369 8.09132 41.4675 8.09132C41.5777 8.09132 41.7327 8.15699 42.1738 8.24669C42.6372 8.31236 43.4314 8.40206 44.8009 8.40206C45.7501 8.40206 47.4503 8.29154 49.0834 8.20344C50.6942 8.08971 52.2171 8.00162 52.7476 8.00162C53.3884 8.00162 53.8742 8.33318 53.8742 9.01874C53.8742 9.41758 53.521 9.94776 53.3437 10.2793L48.5977 18.4675V18.4691Z" fill="#0F172A"/>
<path d="M64.5225 18.4691C64.3243 18.8007 63.5509 20.1061 63.5509 20.4825C63.5509 21.0127 64.743 20.9919 65.0738 20.9919C68.9377 20.9919 67.6785 18.0703 69.3564 18.0703C70.4606 18.0703 70.9464 18.735 70.9464 19.7746C70.9464 22.1644 69.489 23.9568 68.7172 23.9568C68.6069 23.9568 68.1866 23.9119 67.7232 23.8462C67.2598 23.8014 66.7517 23.7582 66.4432 23.7582H57.127C56.376 23.7582 55.5594 23.9568 55.5594 22.9172C55.5594 22.496 55.8247 22.142 56.0228 21.8104L61.5854 12.3392C61.6956 12.1614 61.9833 11.7417 61.9833 11.4983C61.9833 10.9232 61.0772 10.8576 60.5259 10.8576C57.7438 10.8576 58.4278 13.8448 56.8617 13.8448C55.9573 13.8448 55.3389 12.8485 55.3389 12.0076C55.3389 10.3258 56.8617 8.09132 57.3923 8.09132C57.5025 8.09132 57.6575 8.15699 58.0986 8.24669C58.562 8.31236 59.3562 8.40206 60.7257 8.40206C61.6749 8.40206 63.3751 8.29154 65.0083 8.20344C66.6206 8.08971 68.1435 8.00162 68.6724 8.00162C69.3132 8.00162 69.799 8.33318 69.799 9.01874C69.799 9.41758 69.4458 9.94776 69.2685 10.2793L64.5225 18.4675V18.4691Z" fill="#0F172A"/>
</g>
<defs>
<clipPath id="clip0_366_4151">
<rect width="76" height="16" fill="white" transform="translate(1 8)"/>
</clipPath>
</defs>
</svg>
