<svg width="52" height="22" viewBox="0 0 52 22" fill="none" xmlns="http://www.w3.org/2000/svg">
    <path d="M44.1831 2H36.4473C36.4473 2 36.4428 2.00678 36.4349 2.01694H25.334L24.3761 8.96605H31.4849L22.6997 21.1925L27.887 21.1959L27.8847 21.2083H41.5329L42.4909 14.2592H35.3956L44.1831 2Z" fill="white"/>
    <path d="M14.1261 2.01923L13.1805 8.87458L2.64899 2.01923L1.87745 7.61172L0 21.2309H7.73572L8.68122 14.3756L19.2128 21.2309L20.1741 14.2592L20.2792 13.4956L21.8618 2.01923H14.1261Z" fill="white"/>
    <path d="M48.5139 21.2324C50.4392 21.2324 51.9999 19.6717 51.9999 17.7465C51.9999 15.8213 50.4392 14.2607 48.5139 14.2607C46.5886 14.2607 45.0278 15.8213 45.0278 17.7465C45.0278 19.6717 46.5886 21.2324 48.5139 21.2324Z" fill="white"/>
</svg>
