<svg width="52" height="22" viewBox="0 0 52 22" fill="none" xmlns="http://www.w3.org/2000/svg">
    <path d="M44.1831 2H36.4474C36.4474 2 36.4429 2.00678 36.435 2.01694H25.3341L24.3761 8.96605H31.4849L22.6998 21.1925L27.887 21.1959L27.8848 21.2083H41.533L42.4909 14.2592H35.3957L44.1831 2Z" fill="#171717"/>
    <path d="M14.1261 2.01953L13.1805 8.87488L2.64899 2.01953L1.87745 7.61203L0 21.2312H7.73572L8.68122 14.3759L19.2128 21.2312L20.1741 14.2595L20.2792 13.4959L21.8618 2.01953H14.1261Z" fill="#171717"/>
    <path d="M48.514 21.2324C50.4393 21.2324 52 19.6718 52 17.7466C52 15.8214 50.4393 14.2607 48.514 14.2607C46.5887 14.2607 45.028 15.8214 45.028 17.7466C45.028 19.6718 46.5887 21.2324 48.514 21.2324Z" fill="#FF334C"/>
</svg>
