<svg width="24" height="24" viewBox="0 0 24 24" fill="none" xmlns="http://www.w3.org/2000/svg">
<path fill-rule="evenodd" clip-rule="evenodd" d="M15.3158 4.89474H8.68421C6.59134 4.89474 4.89474 6.59134 4.89474 8.68421V15.3158C4.89474 17.4087 6.59134 19.1053 8.68421 19.1053H15.3158C17.4087 19.1053 19.1053 17.4087 19.1053 15.3158V8.68421C19.1053 6.59134 17.4087 4.89474 15.3158 4.89474ZM8.68421 3C5.54491 3 3 5.54491 3 8.68421V15.3158C3 18.4551 5.54491 21 8.68421 21H15.3158C18.4551 21 21 18.4551 21 15.3158V8.68421C21 5.54491 18.4551 3 15.3158 3H8.68421Z" fill="#334155"/>
</svg>
