<svg width="138" height="30" viewBox="0 0 138 30" fill="none" xmlns="http://www.w3.org/2000/svg">
<g clip-path="url(#clip0_9_224)">
<path d="M3.82262 15.0055C1.09177 15.0055 0 13.6889 0 11.371V3.63452C0 1.72322 1.44624 0.782777 3.1789 0.782777C4.91156 0.782777 6.29541 1.75364 6.29541 3.50728V9.49014C6.29541 9.99078 6.48825 10.1484 7.00152 10.1484H16.6034C18.4665 10.1484 19.011 11.371 19.011 12.5604C19.011 13.7498 18.4325 15.0028 16.6034 15.0028H3.82262V15.0055ZM22.9953 17.0413C26.8179 17.0413 27.524 18.1698 27.524 21.7103V29.4164H5.71692C1.83191 29.4164 1.12297 28.2878 1.12297 24.6865V21.7739C1.12297 18.1726 1.82907 17.0441 5.71692 17.0441H22.9953V17.0413ZM21.1974 25.0295V22.1778C21.1974 21.5195 21.0358 21.395 20.4261 21.395H8.18971C7.58002 21.395 7.44957 21.5195 7.44957 22.1778V24.2135C7.44957 24.9327 7.57718 25.0267 8.18971 25.0267H21.1974V25.0295ZM28.1649 9.30481C30.1244 9.30481 30.7029 10.5578 30.7029 11.8108C30.7029 13.0638 30.0932 14.2864 28.1649 14.2864H27.3312V16.1036H20.9081V3.10068C20.9081 1.06491 22.4168 0 24.1211 0C25.7261 0 27.1412 0.940439 27.3 2.72451H28.1677C30.1272 2.72451 30.7057 3.9775 30.7057 5.2305C30.7057 6.4835 30.096 7.70607 28.1677 7.70607H27.334V9.30481H28.1677H28.1649Z" fill="black"/>
<path d="M35.9377 15.0055C33.2069 15.0055 32.1151 13.6889 32.1151 11.371V3.63452C32.1151 1.72322 33.5614 0.782777 35.294 0.782777C37.0267 0.782777 38.4105 1.75364 38.4105 3.50728V9.49014C38.4105 9.99078 38.6034 10.1484 39.1166 10.1484H48.7186C50.5817 10.1484 51.1261 11.371 51.1261 12.5604C51.1261 13.7498 50.5476 15.0028 48.7186 15.0028H35.9377V15.0055ZM55.1104 17.0413C58.933 17.0413 59.6391 18.1698 59.6391 21.7103V29.4164H37.832C33.947 29.4164 33.2381 28.2878 33.2381 24.6865V21.7739C33.2381 18.1726 33.9442 17.0441 37.832 17.0441H55.1104V17.0413ZM53.3125 25.0295V22.1778C53.3125 21.5195 53.1509 21.395 52.5412 21.395H40.3048C39.6951 21.395 39.5647 21.5195 39.5647 22.1778V24.2135C39.5647 24.9327 39.6923 25.0267 40.3048 25.0267H53.3125V25.0295ZM60.2828 9.30481C62.2423 9.30481 62.8208 10.5578 62.8208 11.8108C62.8208 13.0638 62.2112 14.2864 60.2828 14.2864H59.4491V16.1036H53.0261V3.10068C53.0261 1.06491 54.5347 0 56.239 0C57.8441 0 59.2591 0.940439 59.4179 2.72451H60.2857C62.2452 2.72451 62.8237 3.9775 62.8237 5.2305C62.8237 6.4835 62.214 7.70607 60.2857 7.70607H59.4519V9.30481H60.2857H60.2828Z" fill="black"/>
<path d="M63.2037 14.787C62.7528 13.534 63.1385 12.3446 64.2302 11.7804C66.3174 10.7459 66.5414 8.96183 66.5414 5.60944V5.45178H65.5772C64.131 5.45178 63.3285 4.2624 63.3285 3.1643C63.3285 2.0662 64.0034 0.846395 65.5772 0.846395H82.4387C83.9814 0.846395 84.6535 2.09939 84.6535 3.1643C84.6535 4.22921 83.8821 5.45178 82.4387 5.45178H80.6721V5.54582C80.6721 6.58031 80.6068 7.55117 80.4792 8.42799C83.1448 9.33524 84.8151 11.6227 84.4606 15.7883H79.291C79.6115 14.4413 79.4839 13.44 79.0018 12.8121C77.5896 15.3181 75.5024 16.477 73.767 16.477C72.1931 16.477 71.2289 15.6943 71.2289 14.4413C71.2289 14.1287 71.2942 13.8466 71.3906 13.5644C71.2942 13.1247 71.0049 12.7817 70.588 12.5936C69.7203 14.3168 68.4357 15.3513 66.9271 15.8187C65.3844 16.3194 63.6829 16.0068 63.2009 14.7843L63.2037 14.787ZM92.7184 19.9539V29.4136H69.8848C66.3514 29.4136 65.3872 28.191 65.3872 25.0267V19.9511C65.3872 17.8822 66.7683 17.0053 68.6314 17.0053C70.3669 17.0053 71.6174 17.7881 71.7791 19.5113H86.3266C86.4882 17.7577 87.804 17.0053 89.5367 17.0053C91.3998 17.0053 92.7156 17.9126 92.7156 19.9511L92.7184 19.9539ZM75.216 5.45178H71.9407V5.60944C71.9407 6.67435 71.8755 7.67841 71.7479 8.55523C73.0013 8.86779 73.9966 9.40162 74.6716 10.2784C75.0884 9.18311 75.2189 7.67841 75.2189 5.54859V5.45455L75.216 5.45178ZM86.2954 25.3421V23.4003H71.8103V24.6229C71.8103 25.2508 71.9719 25.3421 72.6128 25.3421H86.2954ZM85.5241 5.67029H86.423V3.00664C86.423 1.06491 87.8692 0 89.5707 0C91.2722 0 92.6872 1.06491 92.6872 3.00664V16.1009H86.4258V10.4001H85.5269C83.953 10.4001 82.9265 9.4929 82.9265 8.05182C82.9265 6.61073 83.9218 5.67029 85.5269 5.67029H85.5241Z" fill="black"/>
<path d="M95.3188 14.787C94.8679 13.534 95.2536 12.3446 96.3454 11.7804C98.4325 10.7459 98.6565 8.96183 98.6565 5.60944V5.45178H97.6924C96.2461 5.45178 95.4436 4.2624 95.4436 3.1643C95.4436 2.0662 96.1185 0.846395 97.6924 0.846395H114.554C116.097 0.846395 116.769 2.09939 116.769 3.1643C116.769 4.22921 115.997 5.45178 114.554 5.45178H112.787V5.54582C112.787 6.58031 112.722 7.55117 112.594 8.42799C115.26 9.33524 116.93 11.6227 116.576 15.7883H111.406C111.727 14.4413 111.599 13.44 111.117 12.8121C109.705 15.3181 107.618 16.477 105.882 16.477C104.308 16.477 103.344 15.6943 103.344 14.4413C103.344 14.1287 103.409 13.8466 103.506 13.5644C103.409 13.1247 103.12 12.7817 102.703 12.5936C101.835 14.3168 100.551 15.3513 99.0422 15.8187C97.4995 16.3194 95.7981 16.0068 95.316 14.7843L95.3188 14.787ZM124.834 19.9539V29.4136H102C98.4665 29.4136 97.5024 28.191 97.5024 25.0267V19.9511C97.5024 17.8822 98.8834 17.0053 100.746 17.0053C102.482 17.0053 103.733 17.7881 103.894 19.5113H118.442C118.603 17.7577 119.919 17.0053 121.655 17.0053C123.518 17.0053 124.834 17.9126 124.834 19.9511V19.9539ZM107.331 5.45178H104.056V5.60944C104.056 6.67435 103.991 7.67841 103.863 8.55523C105.116 8.86779 106.112 9.40162 106.787 10.2784C107.204 9.18311 107.334 7.67841 107.334 5.54859V5.45455L107.331 5.45178ZM118.41 25.3421V23.4003H103.925V24.6229C103.925 25.2508 104.087 25.3421 104.728 25.3421H118.41ZM117.639 5.67029H118.538V3.00664C118.538 1.06491 119.984 0 121.686 0C123.387 0 124.802 1.06491 124.802 3.00664V16.1009H118.541V10.4001H117.642C116.068 10.4001 115.042 9.4929 115.042 8.05182C115.042 6.61073 116.037 5.67029 117.642 5.67029H117.639Z" fill="black"/>
<path d="M134.194 30.0001C136.296 30.0001 138 28.3382 138 26.2881C138 24.2381 136.296 22.5762 134.194 22.5762C132.093 22.5762 130.389 24.2381 130.389 26.2881C130.389 28.3382 132.093 30.0001 134.194 30.0001Z" fill="#FF213C"/>
</g>
<defs>
<clipPath id="clip0_9_224">
<rect width="138" height="30" fill="white"/>
</clipPath>
</defs>
</svg>
