<svg width="25" height="24" viewBox="0 0 25 24" fill="none" xmlns="http://www.w3.org/2000/svg">
<g clip-path="url(#clip0_327_5149)">
<path d="M20.2115 9.86485C20.2115 13.8365 17.0417 17.1265 13.5761 20.6621C12.9855 21.2645 12.0148 21.2645 11.4245 20.6621C7.9589 17.1268 4.78906 13.8368 4.78906 9.86485C4.78906 5.48455 8.2414 1.93335 12.5001 1.93335C16.7589 1.93335 20.2112 5.48426 20.2112 9.86485H20.2115Z" fill="#FF334C"/>
<path d="M17.4799 9.37972C17.4799 12.1297 15.251 14.3589 12.5007 14.3589C9.75043 14.3589 7.52148 12.1294 7.52148 9.37972C7.52148 6.63003 9.75101 4.40051 12.5007 4.40051C15.2504 4.40051 17.4799 6.63003 17.4799 9.37972Z" fill="white"/>
<path d="M14.5305 11.433C14.1011 11.8701 13.3867 11.8604 12.9352 11.4115C12.7769 11.254 12.672 11.0635 12.6211 10.8634C13.4102 10.57 14.0445 10.1981 14.5224 9.86133C14.9426 10.3117 14.9501 11.0066 14.5305 11.433Z" fill="#FF334C"/>
<path d="M14.5305 11.433C14.1011 11.8701 13.3867 11.8604 12.9352 11.4115C12.7769 11.254 12.672 11.0635 12.6211 10.8634C13.4102 10.57 14.0445 10.1981 14.5224 9.86133C14.9426 10.3117 14.9501 11.0066 14.5305 11.433Z" fill="#FF334C"/>
<path d="M12.4997 8.90463C12.7542 8.90463 12.9604 8.69838 12.9604 8.44395C12.9604 8.18953 12.7542 7.98328 12.4997 7.98328C12.2453 7.98328 12.0391 8.18953 12.0391 8.44395C12.0391 8.69838 12.2453 8.90463 12.4997 8.90463Z" fill="black"/>
<path d="M15.5118 10.0284C15.5032 9.89824 15.4684 9.77409 15.4084 9.65914C15.3664 9.57896 15.313 9.50539 15.2494 9.44072C15.131 9.32002 14.9302 9.30393 14.8083 9.42118C14.7373 9.48929 14.7072 9.5824 14.7163 9.67236C14.7207 9.71316 14.6968 9.75254 14.6592 9.76863C14.6459 9.77438 14.633 9.78099 14.6204 9.78875C14.2476 10.0169 13.4685 10.3971 12.4414 10.379C11.5298 10.3629 10.8318 10.0491 10.4067 9.78875C10.3924 9.77984 10.3774 9.77236 10.3622 9.76633C10.3151 9.74708 10.2852 9.70224 10.2869 9.65138C10.2898 9.56775 10.2587 9.48326 10.1926 9.42032C10.0705 9.30393 9.87048 9.32031 9.75237 9.44072C9.68886 9.50539 9.6354 9.57896 9.59316 9.65914C9.53712 9.76633 9.50292 9.88186 9.49171 10.0028C9.47907 10.1385 9.54833 10.2695 9.67219 10.3262C9.71587 10.346 9.75553 10.3529 9.79375 10.3529C9.85324 10.3529 9.90928 10.3356 9.9567 10.3055C9.99664 10.2799 10.0472 10.2828 10.0877 10.3075C10.0877 10.3075 10.0883 10.3078 10.0886 10.308C10.5783 10.6081 11.3821 10.9693 12.4305 10.988C12.4578 10.9886 12.4848 10.9886 12.5118 10.9886C13.653 10.9886 14.5186 10.5647 14.9382 10.308C14.9382 10.308 14.9388 10.3078 14.9391 10.3075C14.973 10.2865 15.0147 10.2865 15.0486 10.3075C15.0951 10.3362 15.1497 10.3529 15.2078 10.3529C15.2144 10.3529 15.2213 10.3529 15.2282 10.3523C15.396 10.3414 15.523 10.1963 15.5121 10.0284H15.5118Z" fill="black"/>
</g>
<defs>
<clipPath id="clip0_327_5149">
<rect width="24" height="24" fill="white" transform="translate(0.5)"/>
</clipPath>
</defs>
</svg>
