<svg width="201" height="45" viewBox="0 0 201 45" fill="none" xmlns="http://www.w3.org/2000/svg">
    <g clip-path="url(#clip0_54_674)">
        <path d="M6.04003 22.5082C2.08228 22.5082 0.5 20.5519 0.5 17.1079V5.61276C0.5 2.77288 2.59601 1.37554 5.1071 1.37554C7.6182 1.37554 9.62379 2.81809 9.62379 5.42371V14.3132C9.62379 15.0571 9.90326 15.2914 10.6471 15.2914H24.563C27.2631 15.2914 28.0522 17.1079 28.0522 18.8751C28.0522 20.6423 27.2138 22.5041 24.563 22.5041H6.04003V22.5082ZM33.8265 25.533C39.3665 25.533 40.3899 27.2098 40.3899 32.4704V43.9203H8.78539C3.15494 43.9203 2.12749 42.2435 2.12749 36.8926V32.5649C2.12749 27.2139 3.15083 25.5371 8.78539 25.5371H33.8265V25.533ZM31.2209 37.4022V33.165C31.2209 32.1868 30.9866 32.0019 30.103 32.0019H12.3691C11.4855 32.0019 11.2965 32.1868 11.2965 33.165V36.1898C11.2965 37.2583 11.4814 37.3981 12.3691 37.3981H31.2209V37.4022ZM41.3187 14.0379C44.1586 14.0379 44.997 15.8996 44.997 17.7614C44.997 19.6231 44.1133 21.4397 41.3187 21.4397H40.1104V24.1398H30.8017V4.81957C30.8017 1.79474 32.9881 0.212463 35.4581 0.212463C37.7842 0.212463 39.835 1.6098 40.0652 4.26063H41.3228C44.1627 4.26063 45.0011 6.12238 45.0011 7.98412C45.0011 9.84587 44.1175 11.6624 41.3228 11.6624H40.1145V14.0379H41.3228H41.3187Z" fill="#0F172A"/>
        <path d="M52.5835 22.5082C48.6257 22.5082 47.0435 20.552 47.0435 17.1079V5.61279C47.0435 2.77291 49.1395 1.37557 51.6506 1.37557C54.1617 1.37557 56.1672 2.81812 56.1672 5.42374V14.3133C56.1672 15.0571 56.4467 15.2914 57.1906 15.2914H71.1064C73.8066 15.2914 74.5956 17.1079 74.5956 18.8752C74.5956 20.6424 73.7572 22.5041 71.1064 22.5041H52.5835V22.5082ZM80.3699 25.5331C85.91 25.5331 86.9333 27.2099 86.9333 32.4704V43.9204H55.3288C49.6984 43.9204 48.6709 42.2436 48.6709 36.8926V32.565C48.6709 27.214 49.6943 25.5372 55.3288 25.5372H80.3699V25.5331ZM77.7643 37.4022V33.165C77.7643 32.1868 77.5301 32.0019 76.6464 32.0019H58.9126C58.029 32.0019 57.8399 32.1868 57.8399 33.165V36.1898C57.8399 37.2584 58.0249 37.3981 58.9126 37.3981H77.7643V37.4022ZM87.8662 14.0379C90.7061 14.0379 91.5445 15.8997 91.5445 17.7614C91.5445 19.6231 90.6609 21.4397 87.8662 21.4397H86.658V24.1398H77.3492V4.8196C77.3492 1.79477 79.5356 0.212494 82.0056 0.212494C84.3318 0.212494 86.3826 1.60983 86.6127 4.26066H87.8703C90.7102 4.26066 91.5486 6.12241 91.5486 7.98415C91.5486 9.8459 90.665 11.6624 87.8703 11.6624H86.6621V14.0379H87.8703H87.8662Z" fill="#0F172A"/>
        <path d="M92.0995 22.1836C91.4461 20.3218 92.005 18.5546 93.5873 17.7162C96.6121 16.1791 96.9368 13.5283 96.9368 8.5472V8.31294H95.5394C93.4434 8.31294 92.2804 6.54572 92.2804 4.91412C92.2804 3.28252 93.2585 1.4701 95.5394 1.4701H119.976C122.212 1.4701 123.186 3.33184 123.186 4.91412C123.186 6.4964 122.068 8.31294 119.976 8.31294H117.416V8.45267C117.416 9.98974 117.321 11.4323 117.136 12.7351C121 14.0831 123.42 17.4819 122.907 23.6713H115.414C115.879 21.6698 115.694 20.1821 114.995 19.2492C112.949 22.9726 109.924 24.6947 107.409 24.6947C105.128 24.6947 103.73 23.5316 103.73 21.6698C103.73 21.2054 103.825 20.7862 103.965 20.367C103.825 19.7136 103.406 19.2039 102.801 18.9245C101.544 21.4849 99.6821 23.022 97.4957 23.7165C95.26 24.4604 92.7941 23.996 92.0954 22.1795L92.0995 22.1836ZM134.874 29.8607V43.9163H101.782C96.6614 43.9163 95.2641 42.0997 95.2641 37.3981V29.8566C95.2641 26.7824 97.2656 25.4796 99.9657 25.4796C102.481 25.4796 104.293 26.6427 104.528 29.2031H125.611C125.845 26.5975 127.752 25.4796 130.263 25.4796C132.963 25.4796 134.87 26.8277 134.87 29.8566L134.874 29.8607ZM109.509 8.31294H104.762V8.5472C104.762 10.1295 104.667 11.6213 104.482 12.9241C106.299 13.3886 107.741 14.1818 108.72 15.4846C109.324 13.8571 109.513 11.6213 109.513 8.45678V8.31705L109.509 8.31294ZM125.566 37.8666V34.9815H104.573V36.7981C104.573 37.731 104.807 37.8666 105.736 37.8666H125.566ZM124.448 8.63761H125.751V4.67986C125.751 1.79477 127.847 0.212494 130.313 0.212494C132.778 0.212494 134.829 1.79477 134.829 4.67986V24.1357H125.755V15.6654H124.452C122.171 15.6654 120.683 14.3174 120.683 12.1762C120.683 10.035 122.126 8.63761 124.452 8.63761H124.448Z" fill="#0F172A"/>
        <path d="M138.643 22.1836C137.99 20.3218 138.548 18.5546 140.131 17.7162C143.156 16.1791 143.48 13.5283 143.48 8.5472V8.31294H142.083C139.987 8.31294 138.824 6.54572 138.824 4.91412C138.824 3.28252 139.802 1.4701 142.083 1.4701H166.52C168.756 1.4701 169.73 3.33184 169.73 4.91412C169.73 6.4964 168.612 8.31294 166.52 8.31294H163.959V8.45267C163.959 9.98974 163.865 11.4323 163.68 12.7351C167.543 14.0831 169.964 17.4819 169.45 23.6713H161.958C162.422 21.6698 162.237 20.1821 161.539 19.2492C159.492 22.9726 156.467 24.6947 153.952 24.6947C151.671 24.6947 150.274 23.5316 150.274 21.6698C150.274 21.2054 150.368 20.7862 150.508 20.367C150.368 19.7136 149.949 19.2039 149.345 18.9245C148.087 21.4849 146.226 23.022 144.039 23.7165C141.803 24.4604 139.338 23.996 138.639 22.1795L138.643 22.1836ZM181.418 29.8607V43.9163H148.326C143.205 43.9163 141.808 42.0997 141.808 37.3981V29.8566C141.808 26.7824 143.809 25.4796 146.509 25.4796C149.024 25.4796 150.837 26.6427 151.071 29.2031H172.154C172.389 26.5975 174.296 25.4796 176.811 25.4796C179.511 25.4796 181.418 26.8277 181.418 29.8566V29.8607ZM156.052 8.31294H151.305V8.5472C151.305 10.1295 151.211 11.6213 151.026 12.9241C152.842 13.3886 154.285 14.1818 155.263 15.4846C155.867 13.8571 156.056 11.6213 156.056 8.45678V8.31705L156.052 8.31294ZM172.109 37.8666V34.9815H151.116V36.7981C151.116 37.731 151.351 37.8666 152.279 37.8666H172.109ZM170.991 8.63761H172.294V4.67986C172.294 1.79477 174.39 0.212494 176.856 0.212494C179.322 0.212494 181.373 1.79477 181.373 4.67986V24.1357H172.298V15.6654H170.995C168.714 15.6654 167.227 14.3174 167.227 12.1762C167.227 10.035 168.669 8.63761 170.995 8.63761H170.991Z" fill="#0F172A"/>
        <path d="M194.985 44.7875C198.031 44.7875 200.5 42.3182 200.5 39.2721C200.5 36.2261 198.031 33.7568 194.985 33.7568C191.939 33.7568 189.469 36.2261 189.469 39.2721C189.469 42.3182 191.939 44.7875 194.985 44.7875Z" fill="#FF213C"/>
    </g>
    <defs>
        <clipPath id="clip0_54_674">
            <rect width="200" height="44.575" fill="white" transform="translate(0.5 0.212463)"/>
        </clipPath>
    </defs>
</svg>
