<svg width="18" height="18" viewBox="0 0 18 18" fill="none" xmlns="http://www.w3.org/2000/svg">
<g clip-path="url(#clip0_918_671)">
<path d="M14.7836 7.39858C14.7836 10.3773 12.4062 12.8448 9.80708 15.4965C9.36415 15.9483 8.63606 15.9483 8.19335 15.4965C5.59418 12.845 3.2168 10.3775 3.2168 7.39858C3.2168 4.11335 5.80605 1.44995 9.00011 1.44995C12.1942 1.44995 14.7834 4.11314 14.7834 7.39858H14.7836Z" fill="#FF334C"/>
<path d="M12.7344 7.0347C12.7344 9.09718 11.0627 10.7691 9.00003 10.7691C6.93734 10.7691 5.26562 9.09697 5.26562 7.0347C5.26562 4.97243 6.93777 3.30029 9.00003 3.30029C11.0623 3.30029 12.7344 4.97243 12.7344 7.0347Z" fill="white"/>
<path d="M10.5219 8.57477C10.1999 8.90261 9.66404 8.89528 9.32543 8.55861C9.20667 8.44049 9.12799 8.29759 9.08984 8.14758C9.68171 7.92751 10.1574 7.64861 10.5158 7.396C10.831 7.73374 10.8366 8.25491 10.5219 8.57477Z" fill="#FF334C"/>
<path d="M10.5219 8.57477C10.1999 8.90261 9.66404 8.89528 9.32543 8.55861C9.20667 8.44049 9.12799 8.29759 9.08984 8.14758C9.68171 7.92751 10.1574 7.64861 10.5158 7.396C10.831 7.73374 10.8366 8.25491 10.5219 8.57477Z" fill="#FF334C"/>
<path d="M8.9998 6.67856C9.19062 6.67856 9.34531 6.52387 9.34531 6.33306C9.34531 6.14224 9.19062 5.98755 8.9998 5.98755C8.80899 5.98755 8.6543 6.14224 8.6543 6.33306C8.6543 6.52387 8.80899 6.67856 8.9998 6.67856Z" fill="black"/>
<path d="M11.2584 7.52129C11.2519 7.42365 11.2258 7.33054 11.1808 7.24432C11.1493 7.18419 11.1092 7.12901 11.0616 7.08051C10.9728 6.98999 10.8221 6.97792 10.7307 7.06586C10.6775 7.11694 10.6549 7.18677 10.6618 7.25424C10.665 7.28484 10.6471 7.31437 10.6189 7.32644C10.609 7.33075 10.5993 7.33571 10.5898 7.34153C10.3102 7.51267 9.72591 7.79782 8.95557 7.78424C8.27189 7.77217 7.74835 7.53681 7.42957 7.34153C7.41879 7.33485 7.40758 7.32924 7.39616 7.32472C7.36081 7.31028 7.33839 7.27665 7.33969 7.2385C7.34184 7.17578 7.31857 7.11241 7.26899 7.06521C7.17739 6.97792 7.02737 6.9902 6.93879 7.08051C6.89115 7.12901 6.85106 7.18419 6.81938 7.24432C6.77735 7.32472 6.7517 7.41136 6.7433 7.5021C6.73381 7.60384 6.78576 7.70212 6.87865 7.74458C6.91141 7.75946 6.94116 7.76463 6.96982 7.76463C7.01444 7.76463 7.05647 7.7517 7.09204 7.72907C7.12199 7.70988 7.15993 7.71204 7.19032 7.73057C7.19032 7.73057 7.19075 7.73079 7.19097 7.73101C7.55824 7.95603 8.1611 8.22696 8.94738 8.24097C8.96786 8.2414 8.98812 8.2414 9.00838 8.2414C9.86428 8.2414 10.5135 7.92348 10.8282 7.73101C10.8282 7.73101 10.8286 7.73079 10.8288 7.73057C10.8542 7.71484 10.8855 7.71484 10.9109 7.73057C10.9459 7.75213 10.9868 7.76463 11.0303 7.76463C11.0353 7.76463 11.0405 7.76463 11.0456 7.7642C11.1715 7.75601 11.2668 7.64716 11.2586 7.52129H11.2584Z" fill="black"/>
</g>
<defs>
<clipPath id="clip0_918_671">
<rect width="18" height="18" fill="white"/>
</clipPath>
</defs>
</svg>
