<svg width="14" height="14" viewBox="0 0 14 14" fill="none" xmlns="http://www.w3.org/2000/svg">
<path d="M7.0013 12.8333C10.223 12.8333 12.8346 10.2216 12.8346 6.99996C12.8346 3.7783 10.223 1.16663 7.0013 1.16663C3.77964 1.16663 1.16797 3.7783 1.16797 6.99996C1.16797 10.2216 3.77964 12.8333 7.0013 12.8333Z" fill="#FF6477"/>
<path fill-rule="evenodd" clip-rule="evenodd" d="M6.99935 3C7.32152 3 7.58268 3.26117 7.58268 3.58333V6.72281L9.59356 7.72825C9.88171 7.87233 9.99851 8.22272 9.85443 8.51087C9.71035 8.79903 9.35996 8.91583 9.07181 8.77175L6.73847 7.60508C6.54085 7.50627 6.41602 7.30428 6.41602 7.08333V3.58333C6.41602 3.26117 6.67718 3 6.99935 3Z" fill="white"/>
</svg>
