<svg width="24" height="24" viewBox="0 0 24 24" fill="none" xmlns="http://www.w3.org/2000/svg">
<rect width="24" height="24" fill="none"/>
<path fill-rule="evenodd" clip-rule="evenodd" d="M17.843 4.64922C17.645 4.64922 17.449 4.68822 17.266 4.76399C17.0831 4.83977 16.9169 4.95082 16.7769 5.09083L5.79949 16.0682L4.99988 19.0001L7.93176 18.2005L18.9092 7.2231C19.0492 7.08309 19.1602 6.91688 19.236 6.73395C19.3118 6.55103 19.3508 6.35497 19.3508 6.15697C19.3508 5.95896 19.3118 5.7629 19.236 5.57998C19.1602 5.39705 19.0492 5.23084 18.9092 5.09083C18.7692 4.95082 18.603 4.83977 18.42 4.76399C18.2371 4.68822 18.041 4.64922 17.843 4.64922ZM16.6349 3.24031C17.0179 3.08166 17.4285 3 17.843 3C18.2576 3 18.6681 3.08166 19.0512 3.24031C19.4342 3.39896 19.7822 3.6315 20.0753 3.92465C20.3685 4.2178 20.601 4.56583 20.7597 4.94885C20.9183 5.33187 21 5.74239 21 6.15697C21 6.57154 20.9183 6.98206 20.7597 7.36509C20.601 7.74811 20.3685 8.09613 20.0753 8.38928L8.94309 19.5215C8.84161 19.623 8.71542 19.6962 8.57697 19.734L4.0416 20.9709C3.75611 21.0488 3.45079 20.9677 3.24154 20.7585C3.0323 20.5492 2.95121 20.2439 3.02908 19.9584L4.26599 15.423C4.30375 15.2846 4.37699 15.1584 4.47846 15.0569L15.6107 3.92465C15.9039 3.6315 16.2519 3.39896 16.6349 3.24031Z" fill="#94A3B8"/>
</svg>
