<svg width="18" height="18" viewBox="0 0 18 18" fill="none" xmlns="http://www.w3.org/2000/svg">
<path fill-rule="evenodd" clip-rule="evenodd" d="M2.25 9C2.25 5.27208 5.27208 2.25 9 2.25C12.7279 2.25 15.75 5.27208 15.75 9C15.75 12.7279 12.7279 15.75 9 15.75C5.27208 15.75 2.25 12.7279 2.25 9ZM9.75 14.1968V12.75C9.75 12.3358 9.41421 12 9 12C8.58579 12 8.25 12.3358 8.25 12.75V14.1968C5.95073 13.8679 4.13205 12.0493 3.80317 9.75H5.25C5.66421 9.75 6 9.41421 6 9C6 8.58579 5.66421 8.25 5.25 8.25H3.80317C4.13205 5.95073 5.95073 4.13205 8.25 3.80317V5.25C8.25 5.66421 8.58579 6 9 6C9.41421 6 9.75 5.66421 9.75 5.25V3.80317C12.0493 4.13205 13.8679 5.95073 14.1968 8.25H12.75C12.3358 8.25 12 8.58579 12 9C12 9.41421 12.3358 9.75 12.75 9.75H14.1968C13.8679 12.0493 12.0493 13.8679 9.75 14.1968Z" fill="#64748B"/>
</svg>
