<svg width="145" height="82" viewBox="0 0 145 82" fill="none" xmlns="http://www.w3.org/2000/svg">
<g clip-path="url(#clip0_1877_8926)">
<path d="M118.863 57.8113H142.665V63.3268H111.682V47.1875H118.863V57.8113ZM110.165 65.8439H144.22V71.5444H138.186V81.1688H131.042V71.5444H124.786V71.7295C124.786 77.8743 119.049 81.8351 113.052 81.8351V76.8378C115.791 76.5787 117.975 74.3207 117.975 71.7295V71.5444H110.165V65.8439Z" fill="#0C0C0C"/>
<path d="M90.5089 60.2165H93.3221V46.4463H99.2448V80.9828H93.3221V65.9911H90.5089V79.5762H74.0735V47.4457H90.5089V60.2165ZM101.466 80.9828V46.4463H107.574V80.9828H101.466ZM80.2923 74.1718H84.2901V52.8502H80.2923V74.1718Z" fill="#0C0C0C"/>
<path d="M58.5636 61.1789V55.7745H63.5238V46.4463H70.557V72.469H63.5238V61.1789H58.5636ZM48.6061 62.9927C46.0149 65.88 41.9801 67.7679 37.6492 67.8419V62.5485C42.1282 61.9563 45.1265 58.7728 45.1265 55.4413V55.2562H37.8343V49.7408H44.9785V46.4833H51.7155V49.7408H58.6376V55.2562H51.6044V55.4413C51.6044 56.3297 51.4934 57.1811 51.2713 58.0325C56.0835 58.4027 59.8592 61.6971 59.7481 67.5828H53.3072C53.2702 64.7695 51.3823 62.7706 48.6061 62.9927ZM46.9774 69.7298V75.6524H71.2603V80.9828H39.8331V69.7298H46.9774Z" fill="#0C0C0C"/>
<path d="M34.3911 66.2504H27.469C26.4696 63.2891 22.2127 60.957 17.5116 61.6233C14.106 64.5106 8.55352 66.2874 1.40931 66.4355V60.957C9.14579 60.5868 13.5878 57.8476 14.143 54.4051H2.18666V49.0006H14.032V45.7432H21.5834L21.6204 49.0006H33.4287V54.4051H21.3243C21.2872 55.2194 21.1392 56.0338 20.8801 56.7741C27.321 56.404 33.6138 59.5134 34.3911 66.2504ZM0.780029 67.7681H34.8353V73.4686H21.3983V81.1681H14.2171V73.4686H0.780029V67.7681Z" fill="#0C0C0C"/>
<path d="M125.249 36.8266H118.216V2.29004H125.249V36.8266ZM108.628 35.3459H91.9338V29.4603H108.628C112.441 29.4603 114.44 29.3122 116.402 29.0161V34.9017C114.44 35.1978 112.441 35.3459 108.628 35.3459Z" fill="#0C0C0C"/>
<path d="M63.9862 8.51125H88.1581V13.4345H56.805V2.47754H63.9862V8.51125ZM55.4724 15.1743H89.5277V20.1715H55.4724V15.1743ZM88.8984 36.829H56.5459V27.6489H80.6807V26.1312H56.5459V22.1704H88.3062V31.3135H64.1713V32.8312H88.8984V36.829Z" fill="#0C0C0C"/>
<path d="M42.3317 23.1711H29.709C23.5273 23.1711 19.7886 18.6181 19.7886 13.5468V12.6214C19.7886 7.55012 23.5273 2.99707 29.709 2.99707H42.3317C48.5135 2.99707 52.2892 7.55012 52.2892 12.6214V13.5468C52.2892 18.6181 48.5135 23.1711 42.3317 23.1711ZM27.1179 12.9175V13.2507C27.1179 15.6568 28.7836 17.3595 31.5969 17.3595H40.4439C43.2571 17.3595 44.9599 15.6568 44.9599 13.2507V12.9175C44.9599 10.5114 43.2571 8.80868 40.4439 8.80868H31.5969C28.7836 8.80868 27.1179 10.5114 27.1179 12.9175ZM39.6295 24.6518V30.2043H53.0665V35.9049H19.0112V30.2043H32.4483V24.6518H39.6295Z" fill="#0C0C0C"/>
<path d="M113.798 13.6277C113.798 18.6853 109.772 22.8749 105.37 27.3774C104.62 28.1445 103.387 28.1445 102.637 27.3774C98.2356 22.8753 94.2095 18.6857 94.2095 13.6277C94.2095 8.04959 98.5944 3.52734 104.004 3.52734C109.413 3.52734 113.798 8.04923 113.798 13.6277H113.798Z" fill="#FF213C"/>
<path d="M110.328 13.0087C110.328 16.5106 107.497 19.3494 104.004 19.3494C100.511 19.3494 97.6799 16.5103 97.6799 13.0087C97.6799 9.50714 100.512 6.66797 104.004 6.66797C107.497 6.66797 110.328 9.50714 110.328 13.0087Z" fill="white"/>
<path d="M106.582 15.6245C106.037 16.1812 105.129 16.1687 104.556 15.5971C104.355 15.3965 104.221 15.1539 104.157 14.8992C105.159 14.5255 105.965 14.052 106.572 13.623C107.105 14.1965 107.115 15.0814 106.582 15.6245Z" fill="#FF213C"/>
<path d="M106.582 15.6245C106.037 16.1812 105.129 16.1687 104.556 15.5971C104.355 15.3965 104.221 15.1539 104.157 14.8992C105.159 14.5255 105.965 14.052 106.572 13.623C107.105 14.1965 107.115 15.0814 106.582 15.6245Z" fill="#FF213C"/>
<path d="M104.004 12.479C104.327 12.479 104.589 12.2163 104.589 11.8923C104.589 11.5683 104.327 11.3057 104.004 11.3057C103.681 11.3057 103.419 11.5683 103.419 11.8923C103.419 12.2163 103.681 12.479 104.004 12.479Z" fill="black"/>
<path d="M107.828 13.8361C107.817 13.6703 107.773 13.5122 107.697 13.3658C107.643 13.2637 107.575 13.17 107.495 13.0877C107.344 12.934 107.089 12.9135 106.934 13.0628C106.844 13.1495 106.806 13.2681 106.818 13.3827C106.823 13.4346 106.793 13.4848 106.745 13.5053C106.728 13.5126 106.712 13.521 106.696 13.5309C106.222 13.8215 105.233 14.3056 103.928 14.2826C102.77 14.2621 101.884 13.8624 101.344 13.5309C101.326 13.5195 101.307 13.51 101.287 13.5023C101.227 13.4778 101.189 13.4207 101.192 13.3559C101.195 13.2495 101.156 13.1419 101.072 13.0617C100.917 12.9135 100.663 12.9344 100.513 13.0877C100.432 13.17 100.364 13.2637 100.31 13.3658C100.239 13.5023 100.196 13.6495 100.182 13.8035C100.166 13.9763 100.253 14.1431 100.411 14.2152C100.466 14.2405 100.517 14.2493 100.565 14.2493C100.641 14.2493 100.712 14.2273 100.772 14.1889C100.823 14.1563 100.887 14.16 100.939 14.1914C100.939 14.1914 100.939 14.1918 100.94 14.1922C101.562 14.5742 102.583 15.0343 103.914 15.0581C103.949 15.0588 103.983 15.0588 104.018 15.0588C105.467 15.0588 106.566 14.519 107.099 14.1922C107.099 14.1922 107.1 14.1918 107.1 14.1914C107.144 14.1647 107.196 14.1647 107.24 14.1914C107.299 14.228 107.368 14.2493 107.442 14.2493C107.45 14.2493 107.459 14.2493 107.468 14.2485C107.681 14.2346 107.842 14.0498 107.828 13.8361H107.828Z" fill="black"/>
<rect x="98.2036" y="0.164062" width="11.5625" height="1.26137" rx="0.324227" fill="#090909"/>
<path d="M108.115 4.48535C106.769 4.27034 105.39 4.15723 103.985 4.15723C102.58 4.15723 101.201 4.27043 99.856 4.48535V1.21484H108.115V4.48535Z" fill="#090909"/>
<circle cx="100.608" cy="10.0451" r="2.47668" stroke="#101010" stroke-width="0.275593"/>
<circle cx="107.362" cy="10.0451" r="2.47668" stroke="#101010" stroke-width="0.275593"/>
<path d="M103.114 10.0449H104.857" stroke="black" stroke-width="0.275593"/>
</g>
<defs>
<clipPath id="clip0_1877_8926">
<rect width="145" height="82" fill="white"/>
</clipPath>
</defs>
</svg>
