<svg width="18" height="18" viewBox="0 0 18 18" fill="none" xmlns="http://www.w3.org/2000/svg">
<path fill-rule="evenodd" clip-rule="evenodd" d="M3.6 8.325C3.6 5.71545 5.71545 3.6 8.325 3.6C10.9345 3.6 13.05 5.71545 13.05 8.325C13.05 9.59842 12.5462 10.7542 11.7271 11.6039C11.7044 11.6214 11.6826 11.6406 11.6617 11.6614C11.6409 11.6823 11.6217 11.7042 11.6041 11.7269C10.7544 12.5461 9.59855 13.05 8.325 13.05C5.71545 13.05 3.6 10.9345 3.6 8.325ZM12.1171 13.0714C11.0778 13.9028 9.75946 14.4 8.325 14.4C4.96987 14.4 2.25 11.6801 2.25 8.325C2.25 4.96987 4.96987 2.25 8.325 2.25C11.6801 2.25 14.4 4.96987 14.4 8.325C14.4 9.75931 13.9029 11.0775 13.0717 12.1168L15.5526 14.5977C15.8162 14.8613 15.8162 15.2887 15.5526 15.5523C15.289 15.8159 14.8616 15.8159 14.598 15.5523L12.1171 13.0714Z" fill="black"/>
</svg>
