<svg width="26" height="26" viewBox="0 0 26 26" fill="none" xmlns="http://www.w3.org/2000/svg">
<g clip-path="url(#clip0_1828_10926)">
<path d="M15.12 14.4102C16.83 13.0802 19.82 12.8602 25.23 12.6102C19.82 12.3702 16.83 12.1402 15.12 10.8102C15.72 9.79024 16.79 8.57023 18.34 6.88023C16.65 8.43023 15.43 9.50023 14.41 10.1002C13.08 8.39023 12.86 5.40023 12.61 -0.00976562C12.37 5.40023 12.14 8.39023 10.81 10.1002C9.78999 9.50023 8.56999 8.43023 6.87999 6.88023C8.42999 8.57023 9.49999 9.79024 10.1 10.8102C8.38999 12.1402 5.39999 12.3602 -0.0100098 12.6102C5.39999 12.8502 8.38999 13.0802 10.1 14.4102C9.49999 15.4302 8.42999 16.6502 6.87999 18.3402C8.56999 16.7902 9.78999 15.7202 10.81 15.1202C12.14 16.8302 12.36 19.8202 12.61 25.2302C12.85 19.8202 13.08 16.8302 14.41 15.1202C15.43 15.7202 16.65 16.7902 18.34 18.3402C16.79 16.6502 15.72 15.4302 15.12 14.4102Z" fill="white"/>
</g>
<defs>
<clipPath id="clip0_1828_10926">
<rect width="25.22" height="25.22" fill="white"/>
</clipPath>
</defs>
</svg>
