<svg width="40" height="40" viewBox="0 0 40 40" fill="none" xmlns="http://www.w3.org/2000/svg">
<rect width="40" height="40" rx="20" fill="white"/>
<path fill-rule="evenodd" clip-rule="evenodd" d="M14.6973 31.1628C14.6973 30.7004 15.0721 30.3256 15.5345 30.3256H24.4647C24.9271 30.3256 25.3019 30.7004 25.3019 31.1628C25.3019 31.6251 24.9271 32 24.4647 32H15.5345C15.0721 32 14.6973 31.6251 14.6973 31.1628Z" fill="#E2E8F0"/>
<path fill-rule="evenodd" clip-rule="evenodd" d="M20 8C20.4624 8 20.8372 8.37484 20.8372 8.83721V9.95349C20.8372 10.4159 20.4624 10.7907 20 10.7907C19.5376 10.7907 19.1628 10.4159 19.1628 9.95349V8.83721C19.1628 8.37484 19.5376 8 20 8ZM8 20C8 19.5376 8.37484 19.1628 8.83721 19.1628H9.95349C10.4159 19.1628 10.7907 19.5376 10.7907 20C10.7907 20.4624 10.4159 20.8372 9.95349 20.8372H8.83721C8.37484 20.8372 8 20.4624 8 20ZM29.2093 20C29.2093 19.5376 29.5841 19.1628 30.0465 19.1628H31.1628C31.6252 19.1628 32 19.5376 32 20C32 20.4624 31.6252 20.8372 31.1628 20.8372H30.0465C29.5841 20.8372 29.2093 20.4624 29.2093 20Z" fill="#E2E8F0"/>
<path fill-rule="evenodd" clip-rule="evenodd" d="M26.6054 23.6279H13.3946H8.83721C8.37484 23.6279 8 24.0028 8 24.4651C8 24.9275 8.37484 25.3023 8.83721 25.3023H31.1628C31.6252 25.3023 32 24.9275 32 24.4651C32 24.0028 31.6252 23.6279 31.1628 23.6279H26.6054Z" fill="#E2E8F0"/>
<path opacity="0.5" d="M11.3486 27.814C11.3486 27.3517 11.7235 26.9768 12.1858 26.9768H27.8137C28.2761 26.9768 28.651 27.3517 28.651 27.814C28.651 28.2764 28.2761 28.6512 27.8137 28.6512H12.1858C11.7235 28.6512 11.3486 28.2764 11.3486 27.814Z" fill="#E2E8F0"/>
<path fill-rule="evenodd" clip-rule="evenodd" d="M20.8376 12.511V12.5106C20.3384 12.4341 19.5134 12.4787 19.1632 12.5106V12.5109H19.1625C15.3951 12.9274 12.4648 16.1214 12.4648 19.9998C12.4648 21.3145 12.8021 22.5514 13.3943 23.6277H26.6051C27.1974 22.5514 27.5346 21.3145 27.5346 19.9998C27.5346 16.1216 24.6047 12.9278 20.8376 12.511Z" fill="#E2E8F0"/>
<g opacity="0.5">
<path d="M11.5147 11.5145C11.8417 11.1876 12.3718 11.1876 12.6987 11.5145L13.1373 11.953C13.4642 12.28 13.4642 12.8101 13.1373 13.137C12.8103 13.464 12.2802 13.464 11.9533 13.137L11.5147 12.6985C11.1878 12.3715 11.1878 11.8414 11.5147 11.5145Z" fill="#E2E8F0"/>
<path d="M28.4849 11.5147C28.8119 11.8417 28.8119 12.3718 28.4849 12.6987L28.0464 13.1373C27.7195 13.4642 27.1894 13.4642 26.8624 13.1373C26.5354 12.8103 26.5354 12.2802 26.8624 11.9533L27.3009 11.5147C27.6278 11.1878 28.158 11.1878 28.4849 11.5147Z" fill="#E2E8F0"/>
</g>
</svg>
