<svg width="41" height="40" viewBox="0 0 41 40" fill="none" xmlns="http://www.w3.org/2000/svg">
<rect x="0.5" width="40" height="40" rx="20" fill="white"/>
<path fill-rule="evenodd" clip-rule="evenodd" d="M15.1973 31.1629C15.1973 30.7005 15.5721 30.3257 16.0345 30.3257H24.9647C25.4271 30.3257 25.8019 30.7005 25.8019 31.1629C25.8019 31.6253 25.4271 32.0001 24.9647 32.0001H16.0345C15.5721 32.0001 15.1973 31.6253 15.1973 31.1629Z" fill="#F7896E"/>
<path fill-rule="evenodd" clip-rule="evenodd" d="M20.5 8C20.9624 8 21.3372 8.37484 21.3372 8.83721V9.95349C21.3372 10.4159 20.9624 10.7907 20.5 10.7907C20.0376 10.7907 19.6628 10.4159 19.6628 9.95349V8.83721C19.6628 8.37484 20.0376 8 20.5 8ZM8.5 20C8.5 19.5376 8.87484 19.1628 9.33721 19.1628H10.4535C10.9159 19.1628 11.2907 19.5376 11.2907 20C11.2907 20.4624 10.9159 20.8372 10.4535 20.8372H9.33721C8.87484 20.8372 8.5 20.4624 8.5 20ZM29.7093 20C29.7093 19.5376 30.0842 19.1628 30.5465 19.1628H31.6628C32.1252 19.1628 32.5 19.5376 32.5 20C32.5 20.4624 32.1252 20.8372 31.6628 20.8372H30.5465C30.0842 20.8372 29.7093 20.4624 29.7093 20Z" fill="#F7896E"/>
<path fill-rule="evenodd" clip-rule="evenodd" d="M27.1054 23.6279H13.8946H9.33721C8.87484 23.6279 8.5 24.0028 8.5 24.4651C8.5 24.9275 8.87484 25.3023 9.33721 25.3023H31.6628C32.1252 25.3023 32.5 24.9275 32.5 24.4651C32.5 24.0028 32.1252 23.6279 31.6628 23.6279H27.1054Z" fill="#F7896E"/>
<path opacity="0.5" d="M11.8486 27.814C11.8486 27.3517 12.2235 26.9768 12.6858 26.9768H28.3137C28.7761 26.9768 29.151 27.3517 29.151 27.814C29.151 28.2764 28.7761 28.6512 28.3137 28.6512H12.6858C12.2235 28.6512 11.8486 28.2764 11.8486 27.814Z" fill="#F7896E"/>
<path fill-rule="evenodd" clip-rule="evenodd" d="M21.3376 12.5111V12.5107C20.8384 12.4343 20.0134 12.4789 19.6632 12.5107V12.511H19.6625C15.8951 12.9275 12.9648 16.1215 12.9648 19.9999C12.9648 21.3147 13.3021 22.5515 13.8943 23.6278H27.1051C27.6974 22.5515 28.0346 21.3147 28.0346 19.9999C28.0346 16.1217 25.1047 12.9279 21.3376 12.5111Z" fill="#F7896E"/>
<g opacity="0.5">
<path d="M12.0147 11.5145C12.3417 11.1876 12.8718 11.1876 13.1987 11.5145L13.6373 11.953C13.9642 12.28 13.9642 12.8101 13.6373 13.137C13.3103 13.464 12.7802 13.464 12.4533 13.137L12.0147 12.6985C11.6878 12.3715 11.6878 11.8414 12.0147 11.5145Z" fill="#F7896E"/>
<path d="M28.9849 11.5147C29.3119 11.8417 29.3119 12.3718 28.9849 12.6987L28.5464 13.1373C28.2195 13.4642 27.6894 13.4642 27.3624 13.1373C27.0354 12.8103 27.0354 12.2802 27.3624 11.9533L27.8009 11.5147C28.1278 11.1878 28.658 11.1878 28.9849 11.5147Z" fill="#F7896E"/>
</g>
</svg>
