<svg width="40" height="40" viewBox="0 0 40 40" fill="none" xmlns="http://www.w3.org/2000/svg">
<rect width="40" height="40" rx="20" fill="white"/>
<path d="M26.6981 19.9999C26.6981 23.6989 23.6994 26.6976 20.0004 26.6976C16.3014 26.6976 13.3027 23.6989 13.3027 19.9999C13.3027 16.3009 16.3014 13.3022 20.0004 13.3022C23.6994 13.3022 26.6981 16.3009 26.6981 19.9999Z" fill="#FFBC21"/>
<path fill-rule="evenodd" clip-rule="evenodd" d="M20 8C20.4624 8 20.8372 8.37484 20.8372 8.83721V9.95349C20.8372 10.4159 20.4624 10.7907 20 10.7907C19.5376 10.7907 19.1628 10.4159 19.1628 9.95349V8.83721C19.1628 8.37484 19.5376 8 20 8ZM8 20C8 19.5376 8.37484 19.1628 8.83721 19.1628H9.95349C10.4159 19.1628 10.7907 19.5376 10.7907 20C10.7907 20.4624 10.4159 20.8372 9.95349 20.8372H8.83721C8.37484 20.8372 8 20.4624 8 20ZM29.2093 20C29.2093 19.5376 29.5842 19.1628 30.0465 19.1628H31.1628C31.6252 19.1628 32 19.5376 32 20C32 20.4624 31.6252 20.8372 31.1628 20.8372H30.0465C29.5842 20.8372 29.2093 20.4624 29.2093 20ZM20 29.2093C20.4624 29.2093 20.8372 29.5842 20.8372 30.0465V31.1628C20.8372 31.6252 20.4624 32 20 32C19.5376 32 19.1628 31.6252 19.1628 31.1628V30.0465C19.1628 29.5842 19.5376 29.2093 20 29.2093Z" fill="#FFBC21"/>
<g opacity="0.5">
<path d="M11.5147 11.5145C11.8417 11.1876 12.3718 11.1876 12.6987 11.5145L13.1373 11.953C13.4642 12.28 13.4642 12.8101 13.1373 13.137C12.8103 13.464 12.2802 13.464 11.9533 13.137L11.5147 12.6985C11.1878 12.3715 11.1878 11.8414 11.5147 11.5145Z" fill="#FFBC21"/>
<path d="M28.4849 11.5147C28.8119 11.8417 28.8119 12.3718 28.4849 12.6987L28.0464 13.1373C27.7195 13.4642 27.1894 13.4642 26.8624 13.1373C26.5354 12.8103 26.5354 12.2802 26.8624 11.9533L27.3009 11.5147C27.6278 11.1878 28.158 11.1878 28.4849 11.5147Z" fill="#FFBC21"/>
<path d="M26.8624 26.8622C27.1894 26.5352 27.7195 26.5352 28.0464 26.8622L28.4849 27.3006C28.8119 27.6276 28.8119 28.1577 28.4849 28.4847C28.158 28.8116 27.6278 28.8116 27.3009 28.4847L26.8624 28.0462C26.5354 27.7192 26.5354 27.1891 26.8624 26.8622Z" fill="#FFBC21"/>
<path d="M13.1373 26.8627C13.4642 27.1896 13.4642 27.7196 13.1373 28.0466L12.6987 28.4852C12.3718 28.8121 11.8417 28.8121 11.5147 28.4852C11.1878 28.1582 11.1878 27.6281 11.5147 27.3011L11.9533 26.8627C12.2802 26.5357 12.8103 26.5357 13.1373 26.8627Z" fill="#FFBC21"/>
</g>
</svg>
