<svg width="24" height="24" viewBox="0 0 24 24" fill="none" xmlns="http://www.w3.org/2000/svg">
    <path fill-rule="evenodd" clip-rule="evenodd" d="M20 2C21.1046 2 22 2.89543 22 4V20C22 21.1046 21.1046 22 20 22H4C2.89543 22 2 21.1046 2 20V4C2 2.89543 2.89543 2 4 2H20ZM16.2461 8.7168C15.241 7.65056 13.6115 7.65052 12.6064 8.7168L12.0723 9.2832C12.0328 9.325 11.9662 9.32496 11.9268 9.2832L11.3926 8.7168C10.3874 7.65062 8.75799 7.65048 7.75293 8.7168C6.74825 9.78311 6.7482 11.5118 7.75293 12.5781L11.9277 17.0068C11.9672 17.0485 12.0338 17.0486 12.0732 17.0068L16.2461 12.5781C17.251 11.5118 17.251 9.78314 16.2461 8.7168Z" fill="var(--fill-color, #D1D5DB)"/>
</svg>